<?xml version="1.0" standalone="no"?>
<!DOCTYPE svg PUBLIC "-//W3C//DTD SVG 20010904//EN"
 "http://www.w3.org/TR/2001/REC-SVG-20010904/DTD/svg10.dtd">
<svg version="1.0" xmlns="http://www.w3.org/2000/svg"
 width="1740.000000pt" height="1740.000000pt" viewBox="0 0 1740.000000 1740.000000"
 preserveAspectRatio="xMidYMid meet">
<metadata>
Created by potrace 1.11, written by Peter Selinger 2001-2013
</metadata>
<g transform="translate(0.000000,1740.000000) scale(0.100000,-0.100000)"
fill="#000000" stroke="none">
<path d="M1417 12074 c-1 -1 -33 -5 -72 -8 -113 -10 -317 -70 -336 -99 -3 -5
-8 -7 -10 -5 -9 7 -123 -66 -186 -119 -69 -57 -172 -162 -173 -175 0 -4 -6
-13 -12 -20 -93 -98 -225 -378 -285 -603 -11 -43 -13 -4493 -1 -4552 5 -26 10
-55 11 -63 2 -8 11 -32 21 -52 32 -65 35 -66 469 -64 364 1 435 -3 424 -21 -5
-9 25 -190 33 -200 2 -2 3 -6 4 -10 21 -94 117 -276 196 -373 97 -120 229
-227 355 -292 79 -40 169 -75 200 -79 6 -1 21 -6 35 -11 103 -40 401 -45 528
-9 18 6 36 11 40 12 12 3 24 7 82 25 198 61 423 234 547 419 105 157 177 349
187 503 1 13 7 26 13 30 14 9 2541 8 2549 -1 4 -4 9 -28 11 -54 3 -27 13 -82
24 -123 79 -317 281 -573 572 -724 48 -25 87 -43 87 -40 0 4 6 2 13 -4 12 -10
104 -39 153 -48 15 -3 31 -7 34 -9 28 -18 306 -26 380 -11 28 5 81 15 110 21
38 7 141 44 200 72 67 32 204 117 236 147 71 66 124 121 124 128 0 5 4 6 10 3
6 -3 10 -2 10 4 0 5 18 32 40 60 22 28 40 55 40 61 0 5 4 10 9 10 5 0 11 8 14
18 4 9 17 37 31 61 23 41 56 115 56 126 0 3 7 22 16 43 9 20 18 46 19 57 2 11
10 47 17 80 8 33 14 73 13 88 -1 20 4 31 16 35 10 4 297 7 639 6 l620 -1 -5
276 c-3 152 -7 303 -9 336 -1 33 2 66 7 73 6 7 6 12 0 12 -5 0 -9 37 -9 83 -2
116 -14 745 -19 977 -3 107 -7 311 -9 453 l-5 257 -77 148 c-42 81 -89 170
-104 197 -15 28 -53 100 -85 160 -117 224 -148 280 -156 290 -5 5 -9 17 -9 26
0 10 -3 19 -8 21 -4 2 -22 32 -40 68 -19 36 -43 81 -54 100 -11 19 -21 40 -22
46 -1 7 -7 18 -12 25 -6 8 -40 70 -76 139 -114 217 -150 285 -159 295 -5 5 -9
17 -9 27 0 10 -4 18 -10 18 -5 0 -10 6 -10 14 0 8 -6 21 -13 28 -7 7 -14 16
-15 21 -1 4 -15 34 -32 67 -17 33 -27 60 -23 60 5 1 122 2 262 3 l254 2 4 29
c2 16 15 54 28 85 21 51 64 185 71 221 3 16 8 48 22 143 9 57 8 232 -2 272
-30 136 -69 232 -129 323 -31 48 -212 232 -227 232 -5 0 -15 6 -22 13 -60 58
-328 176 -473 208 -49 10 -708 13 -3498 13 -1891 1 -3439 0 -3440 0z m6948
-203 c39 -12 75 -23 80 -25 6 -2 20 -7 33 -11 48 -16 169 -78 234 -121 149
-100 277 -267 302 -395 2 -13 8 -42 13 -64 10 -44 9 -195 -1 -265 -8 -50 -27
-125 -57 -216 l-19 -60 -1584 -1 c-872 -1 -1590 -4 -1596 -8 -6 -4 -10 -17 -9
-28 4 -52 1 -55 -43 -54 l-43 1 -2 -2039 c-1 -1122 -2 -2051 -3 -2066 l0 -25
-1087 0 c-599 1 -1093 4 -1099 8 -5 4 -11 26 -12 50 -2 24 -8 61 -14 83 -5 22
-11 45 -13 50 -16 72 -18 78 -64 178 -17 37 -31 69 -31 72 0 7 -110 167 -124
181 -6 6 -27 28 -46 50 -108 119 -285 234 -447 289 -193 67 -446 78 -631 28
-31 -8 -61 -16 -67 -17 -5 -2 -23 -8 -38 -14 -16 -7 -32 -12 -35 -12 -17 0
-169 -84 -235 -129 -82 -57 -188 -161 -247 -241 -22 -30 -45 -60 -50 -67 -6
-7 -10 -15 -10 -19 0 -3 -8 -18 -18 -32 -28 -40 -88 -188 -107 -262 -20 -77
-21 -80 -30 -146 l-6 -51 -366 1 -367 1 -6 25 c-12 47 -12 4420 1 4475 50 227
176 475 316 625 134 145 320 241 508 266 28 3 51 7 52 8 1 0 1553 0 3450 0
l3448 -1 70 -22z m-1867 -1346 c3 -3 6 -289 6 -636 l1 -631 60 -33 c33 -18
103 -55 155 -83 52 -28 115 -62 140 -76 25 -14 63 -34 85 -45 22 -11 72 -37
110 -59 39 -21 120 -65 180 -97 61 -32 171 -92 245 -132 l135 -74 830 0 c457
0 837 -2 845 -5 12 -3 15 -24 15 -106 l0 -102 -115 1 c-133 2 -207 -14 -314
-68 -135 -67 -260 -224 -281 -354 -29 -174 40 -346 182 -461 134 -107 321
-156 499 -130 l52 7 1 -105 2 -106 -84 0 -84 0 1 -107 1 -108 75 -1 c41 -1 80
-2 85 -3 10 -1 14 -95 19 -411 l1 -105 -542 -1 -541 0 -16 90 c-19 103 -38
167 -72 244 -13 29 -24 55 -24 57 0 3 -18 35 -40 71 -22 36 -40 70 -40 74 0 5
-3 10 -8 12 -4 2 -23 23 -42 48 -148 190 -410 350 -650 396 -8 2 -31 6 -50 10
-56 11 -250 13 -310 3 -30 -5 -66 -11 -80 -13 -205 -33 -443 -168 -601 -342
-58 -62 -139 -176 -139 -193 0 -5 -3 -11 -7 -13 -23 -10 -106 -222 -120 -303
-2 -16 -8 -46 -12 -65 -4 -20 -7 -43 -5 -53 3 -20 11 -19 -102 -22 l-91 -3 0
2019 0 2018 66 3 c110 5 573 0 579 -7z m1856 3 c5 -5 137 -257 181 -343 22
-44 42 -82 45 -85 5 -5 67 -123 134 -255 23 -44 43 -82 46 -85 3 -3 22 -39 43
-80 22 -41 53 -102 71 -135 68 -128 225 -426 307 -583 15 -29 31 -58 37 -65 5
-6 12 -22 15 -34 6 -26 9 -25 -103 -23 -41 0 -82 1 -90 0 -8 0 -320 0 -692 -1
-646 -1 -680 0 -715 18 -33 16 -98 51 -288 155 -27 15 -75 39 -105 54 -30 16
-57 31 -60 34 -3 3 -34 20 -70 38 -70 36 -188 99 -285 152 -33 18 -78 42 -100
54 l-40 21 -1 570 c0 314 1 577 3 585 4 13 104 15 834 13 457 0 832 -3 833 -5z"/>
<path d="M5667 11420 c-14 -6 -19 -201 -5 -211 4 -3 52 -5 105 -4 l98 1 3 107
c2 82 0 107 -10 107 -109 4 -181 4 -191 0z"/>
<path d="M6150 11420 c-13 -8 -15 -201 -2 -209 9 -5 178 -7 202 -2 8 2 6 198
-2 207 -8 8 -186 12 -198 4z"/>
<path d="M6619 11422 l-27 -3 1 -105 c1 -57 3 -105 6 -105 21 -5 194 -3 202 1
6 4 9 49 7 109 l-3 103 -80 1 c-44 1 -92 1 -106 -1z"/>
<path d="M7128 11422 l-68 -3 0 -103 0 -103 28 -5 c15 -3 63 -5 107 -4 l80 1
1 107 0 106 -40 4 c-23 1 -71 2 -108 0z"/>
<path d="M7575 11420 l-41 -5 0 -105 0 -106 103 1 c56 1 106 4 109 8 6 6 6
198 0 204 -6 6 -131 8 -171 3z"/>
<path d="M8018 11420 c-24 -5 -24 -6 -24 -110 l1 -105 98 0 c54 0 102 2 108 5
6 4 9 49 7 109 l-3 103 -81 1 c-44 1 -92 0 -106 -3z"/>
<path d="M1747 10954 c-1 -1 -24 -5 -51 -8 -91 -13 -195 -85 -229 -158 -6 -16
-15 -28 -18 -28 -3 0 -6 -6 -7 -12 0 -7 -6 -33 -12 -58 -7 -31 -10 -282 -8
-800 l3 -755 26 -55 c35 -74 89 -126 168 -163 l65 -31 1446 1 1445 0 56 22
c99 38 185 135 205 231 10 51 12 1508 2 1550 -5 19 -11 40 -12 45 -2 6 -3 12
-2 15 0 3 -15 27 -34 54 -69 95 -154 141 -270 146 -67 2 -2770 6 -2773 4z
m2843 -205 c78 -44 74 -3 74 -824 0 -401 -3 -742 -7 -756 -8 -30 -32 -59 -71
-84 -27 -18 -84 -19 -1444 -19 -1289 -1 -1419 0 -1452 15 -50 23 -82 70 -86
128 -1 25 -3 51 -4 56 -1 6 -1 15 0 20 4 23 2 94 -4 103 -3 6 -2 21 3 34 5 13
5 33 0 46 -5 12 -5 22 -1 22 8 0 8 52 0 66 -3 5 -2 18 2 29 4 11 4 30 -1 43
-5 12 -5 22 -1 22 4 0 6 35 4 77 -3 95 -3 85 0 161 2 34 0 62 -4 62 -4 0 -4
10 1 22 4 12 5 39 1 60 -4 21 -5 40 -1 42 8 5 6 59 -2 72 -3 6 -2 15 1 22 7 9
7 68 1 98 -1 5 0 14 1 19 2 14 2 148 0 160 -1 6 -1 13 0 18 1 4 2 32 2 62 0
30 -1 58 -2 63 -1 4 -1 12 0 17 1 6 3 24 5 42 6 62 51 105 128 122 15 3 656 5
1423 4 l1394 -2 40 -22z"/>
<path d="M670 7939 l0 -109 108 0 107 0 1 105 c0 87 -3 106 -16 109 -8 2 -57
4 -107 4 l-93 -1 0 -108z"/>
<path d="M1130 7938 l0 -108 108 0 108 0 0 108 -1 107 -107 1 -108 1 0 -109z"/>
<path d="M1599 8029 c0 -11 -1 -53 -1 -94 0 -41 1 -82 1 -90 1 -12 20 -15 106
-15 77 0 105 3 106 13 4 41 5 184 2 193 -3 7 -41 11 -109 11 -95 0 -104 -1
-105 -18z"/>
<path d="M2058 8032 c-2 -8 -2 -57 0 -108 l3 -94 108 0 107 0 -2 103 c-1 56
-2 105 -3 109 0 4 -48 6 -106 5 -80 -1 -105 -5 -107 -15z"/>
<path d="M2534 8041 c-5 -3 -9 -52 -9 -109 l0 -103 110 3 109 3 1 90 c1 131 9
122 -105 122 -53 0 -101 -2 -106 -6z"/>
<path d="M2997 8036 c-2 -6 -3 -54 -3 -106 l1 -95 108 -3 107 -3 0 109 0 109
-105 0 c-64 0 -106 -5 -108 -11z"/>
<path d="M3437 7966 c1 -44 2 -94 3 -109 l0 -28 108 3 107 3 0 105 0 105 -110
1 -110 1 2 -81z"/>
<path d="M3933 8037 c-7 -10 -10 -141 -4 -194 1 -10 29 -13 106 -13 l105 0 0
108 0 109 -99 1 c-66 0 -103 -3 -108 -11z"/>
<path d="M4385 8042 c-3 -3 -5 -52 -5 -109 l0 -104 108 3 107 3 1 106 0 106
-103 0 c-56 0 -105 -2 -108 -5z"/>
<path d="M4855 7941 l1 -106 107 -3 107 -3 0 109 0 109 -108 0 -108 0 1 -106z"/>
<path d="M5318 8036 c-2 -6 -3 -54 -3 -106 l1 -95 107 -3 c59 -1 107 1 108 5
1 11 1 141 0 179 l-1 30 -104 1 c-69 0 -106 -3 -108 -11z"/>
<path d="M8210 7122 l0 -108 98 1 c53 0 102 3 108 7 6 4 10 46 9 105 l-1 98
-107 3 -107 3 0 -109z"/>
<path d="M8679 7203 c-3 -96 -1 -171 4 -179 3 -6 52 -10 109 -10 l102 1 1 108
1 107 -108 0 -108 0 -1 -27z"/>
<path d="M10850 10540 l-45 -5 0 -1450 0 -1450 294 0 295 0 0 660 1 660 61 -2
c78 -2 119 -23 140 -71 14 -32 16 -108 16 -622 0 -322 1 -594 3 -606 4 -20 8
-20 282 -19 153 1 280 3 283 3 8 3 6 1236 -2 1248 -4 6 -9 22 -12 36 -8 46
-45 115 -80 150 -37 37 -102 74 -123 70 -30 -6 -9 15 35 35 41 20 76 48 126
103 27 31 77 157 85 215 1 3 1 6 2 8 12 37 16 342 5 472 -7 77 -9 92 -21 145
-3 14 -7 37 -10 53 -10 53 -46 135 -83 188 -78 112 -189 167 -352 175 -130 7
-844 10 -900 4z m748 -556 c42 -24 56 -82 56 -224 0 -171 -13 -229 -63 -274
-17 -16 -38 -20 -106 -21 -47 -1 -85 1 -86 4 0 4 -2 120 -2 260 -1 170 2 258
9 265 17 18 158 11 192 -10z"/>
<path d="M12334 10490 c4 -30 8 -68 10 -85 3 -16 8 -57 12 -90 4 -33 8 -67 9
-75 1 -8 5 -42 9 -76 4 -33 8 -71 10 -85 3 -13 7 -51 11 -84 4 -32 8 -67 10
-76 2 -10 6 -46 10 -81 3 -35 8 -76 10 -93 3 -16 7 -48 10 -70 4 -22 8 -62 10
-89 2 -27 9 -81 14 -120 6 -39 13 -91 16 -116 3 -25 7 -56 9 -70 3 -14 7 -56
11 -93 3 -37 8 -78 11 -90 2 -12 7 -44 9 -72 3 -27 7 -66 10 -85 7 -49 23
-181 30 -250 10 -87 16 -138 20 -155 2 -11 7 -45 10 -75 11 -104 13 -125 19
-160 6 -41 24 -185 31 -250 2 -25 7 -56 9 -70 3 -14 8 -54 11 -90 3 -36 8 -78
10 -95 3 -16 7 -50 10 -75 11 -96 -40 -85 408 -86 219 0 398 2 398 5 1 3 3 15
4 26 1 11 5 40 9 65 3 25 8 65 11 90 3 25 7 61 10 80 5 39 12 93 20 160 3 25
8 61 10 80 3 19 7 55 10 80 5 56 13 123 21 175 4 22 8 56 9 75 1 19 5 53 9 75
6 42 12 86 21 175 3 30 8 69 11 85 3 17 7 50 9 75 2 25 6 56 9 70 4 22 10 67
21 180 2 19 6 49 9 65 3 17 8 55 11 86 3 31 8 67 10 80 3 13 8 52 11 85 2 34
7 72 9 85 3 12 7 45 10 73 3 28 7 67 10 86 8 57 16 122 21 165 2 22 6 54 8 70
2 17 8 59 11 95 4 36 9 72 10 81 2 9 6 40 9 70 4 30 9 72 13 94 3 22 7 51 8
65 1 14 6 54 10 90 5 36 9 78 9 95 l1 30 -274 0 c-266 0 -274 -1 -277 -20 -2
-11 -6 -49 -9 -85 -3 -36 -7 -83 -10 -105 -2 -22 -6 -71 -10 -110 -4 -38 -9
-88 -11 -110 -9 -85 -13 -132 -19 -200 -9 -94 -14 -152 -19 -200 -5 -49 -16
-166 -21 -220 -4 -48 -14 -152 -21 -215 -3 -25 -7 -67 -9 -95 -5 -60 -14 -155
-20 -210 -13 -122 -23 -229 -29 -318 -4 -60 -15 -90 -17 -46 -1 27 -3 55 -13
144 -14 135 -17 161 -21 185 -2 14 -7 54 -10 90 -3 36 -8 83 -10 105 -3 22 -7
63 -10 90 -2 28 -7 73 -10 100 -4 28 -9 68 -11 90 -2 22 -6 56 -8 75 -2 19 -7
64 -10 100 -3 36 -8 76 -11 90 -2 14 -7 57 -10 95 -3 39 -8 84 -10 100 -3 17
-7 55 -10 85 -3 30 -7 78 -10 105 -3 28 -7 66 -9 85 -2 19 -7 60 -10 90 -4 30
-9 73 -11 95 -2 22 -7 65 -11 95 -3 30 -6 67 -7 83 0 15 -3 28 -6 28 -3 1
-129 2 -279 3 l-273 1 5 -55z"/>
<path d="M14080 10540 l-75 -5 1 -1440 c1 -792 2 -1445 3 -1451 1 -7 88 -10
283 -10 l283 1 0 707 c0 388 3 709 6 712 3 3 6 0 6 -6 0 -13 9 -63 18 -108 3
-14 8 -41 11 -60 7 -35 11 -57 19 -95 6 -24 44 -210 50 -245 3 -14 8 -36 11
-50 3 -13 7 -40 10 -60 2 -19 8 -48 13 -65 5 -16 9 -37 10 -45 0 -8 7 -46 16
-85 21 -96 23 -105 29 -145 3 -19 8 -45 11 -57 13 -56 16 -70 20 -98 3 -16 8
-37 10 -45 2 -8 7 -28 10 -45 2 -16 7 -41 10 -55 3 -14 8 -38 11 -55 3 -16 8
-46 12 -65 l8 -35 282 -1 c155 0 283 2 283 5 1 3 2 657 3 1454 1 1441 1 1447
-19 1447 -23 1 -254 1 -426 0 l-116 0 1 -670 c1 -368 -2 -670 -6 -670 -5 0 -9
6 -9 13 -3 31 -16 103 -24 137 -3 14 -8 36 -10 50 -2 14 -11 61 -20 105 -10
44 -18 89 -20 100 -1 11 -5 35 -9 53 -5 19 -9 43 -11 55 -2 12 -6 32 -8 43 -3
12 -8 37 -11 55 -3 19 -17 93 -31 164 -15 72 -28 141 -30 155 -2 14 -6 36 -9
50 -8 37 -25 121 -31 155 -3 17 -7 41 -10 55 -9 37 -13 61 -20 104 -3 22 -7
41 -8 43 -6 5 -453 8 -527 3z"/>
<path d="M15700 10540 c-5 -3 -9 -658 -9 -1456 l0 -1451 452 2 c249 2 468 6
487 9 55 9 148 43 198 72 111 65 206 216 243 389 17 76 19 85 23 110 10 57 20
163 20 222 1 35 3 63 6 63 3 0 4 30 3 67 -1 38 -3 68 -3 68 -1 0 -3 25 -5 55
-1 30 -5 80 -9 111 -11 97 -69 279 -88 279 -5 0 -8 6 -8 13 0 36 -183 171
-204 150 -3 -3 -6 -4 -6 0 0 3 28 20 63 37 110 56 179 156 209 305 23 116 14
505 -14 558 -5 9 -6 17 -3 17 2 0 -6 29 -20 65 -73 195 -215 292 -455 310 -30
2 -55 4 -55 5 0 4 -819 4 -825 0z m759 -470 c17 -11 34 -36 40 -54 12 -46 11
-388 -1 -451 -20 -98 -62 -124 -184 -117 l-54 4 0 318 c1 175 3 319 5 322 2 2
40 3 84 2 64 -2 87 -7 110 -24z m-9 -1098 c79 -40 96 -118 95 -437 -1 -231 -2
-242 -24 -287 -31 -60 -95 -97 -178 -102 -32 -1 -63 -1 -70 2 -9 3 -12 105
-12 423 l0 419 77 0 c53 0 88 -5 112 -18z"/>
</g>
</svg>
