<?xml version="1.0" encoding="UTF-8"?>
<svg version="1.1" viewBox="0 0 726.15 498.89" xmlns="http://www.w3.org/2000/svg" xmlns:xlink="http://www.w3.org/1999/xlink">
 <defs>
  <linearGradient id="p">
   <stop stop-color="#00f" offset="0"/>
   <stop stop-color="#2b2bd1" offset="1"/>
  </linearGradient>
  <linearGradient id="o">
   <stop stop-color="#f2f2f2" offset="0"/>
   <stop stop-color="#fff" offset="1"/>
  </linearGradient>
  <linearGradient id="n">
   <stop stop-color="#666" offset="0"/>
   <stop stop-color="#bfbfbf" offset="1"/>
  </linearGradient>
  <radialGradient id="z" cx="268.2" cy="260.4" r="74.536" gradientTransform="matrix(1 0 0 .70862 -45.714 65.876)" gradientUnits="userSpaceOnUse">
   <stop stop-color="#a9a6a6" stop-opacity=".68946" offset="0"/>
   <stop stop-color="#929292" stop-opacity=".54131" offset="1"/>
  </radialGradient>
  <linearGradient id="s" x1="145.46" x2="150" y1="379.61" y2="385.41" gradientTransform="translate(-45.714 -10)" gradientUnits="userSpaceOnUse">
   <stop stop-color="#f60" stop-opacity=".92308" offset="0"/>
   <stop stop-color="#ff9b00" stop-opacity=".93732" offset="1"/>
  </linearGradient>
  <linearGradient id="t" x1="584.14" x2="700.86" y1="438.61" y2="438.61" gradientTransform="translate(-45.714 -10)" gradientUnits="userSpaceOnUse" xlink:href="#n"/>
  <linearGradient id="u" x1="664.5" x2="742.46" y1="445.4" y2="445.4" gradientTransform="translate(-45.714 -10)" gradientUnits="userSpaceOnUse" xlink:href="#n"/>
  <filter id="q" color-interpolation-filters="sRGB">
   <feGaussianBlur result="result8" stdDeviation="4"/>
   <feOffset dx="4" dy="4" result="result11"/>
   <feComposite in="SourceGraphic" in2="result11" operator="in" result="result6"/>
   <feFlood flood-color="rgb(0,0,0)" in="result6" result="result10"/>
   <feBlend in="result6" in2="result10" result="result12"/>
   <feComposite in2="SourceGraphic" operator="in" result="result2"/>
  </filter>
  <linearGradient id="v" x1="53.11" x2="638.33" y1="281.25" y2="281.25" gradientUnits="userSpaceOnUse" xlink:href="#o"/>
  <linearGradient id="w" x1="385.79" x2="465.24" y1="299.54" y2="299.54" gradientUnits="userSpaceOnUse" xlink:href="#o"/>
  <filter id="r" x="-.026981" y="-.15601" width="1.054" height="1.312" color-interpolation-filters="sRGB">
   <feGaussianBlur stdDeviation="4.6896394"/>
  </filter>
  <linearGradient id="x" x1="103.51" x2="588.19" y1="380.22" y2="380.22" gradientUnits="userSpaceOnUse" xlink:href="#p"/>
  <linearGradient id="y" x1="129.01" x2="547.83" y1="188.5" y2="188.5" gradientUnits="userSpaceOnUse" xlink:href="#p"/>
 </defs>
 <g transform="translate(-17.677 -48.736)">
  <path transform="matrix(1.3737 0 0 1 -80.244 -27.857)" d="m562.86 492.72c0 19.922-93.381 36.071-208.57 36.071s-208.57-16.15-208.57-36.071c0-19.922 93.381-36.071 208.57-36.071s208.57 16.15 208.57 36.071z" filter="url(#r)" opacity=".26537"/>
  <path d="m586.07 412.72 39.643 2.8572v9.2857l-36.071 1.0714-3.5714-13.214z" fill="#333" stroke="#000" stroke-width="1px"/>
  <path transform="translate(-39.643 -7.1429)" d="m700.71 461.83c0 5.4242-4.5571 9.8214-10.179 9.8214-5.6215 0-10.179-4.3972-10.179-9.8214s4.5571-9.8214 10.179-9.8214c5.6215 0 10.179 4.3972 10.179 9.8214z" fill="#4d4d4d" stroke="#000" stroke-linejoin="round" stroke-width="4.8"/>
  <path d="m619.29 413.43 1.7857 10 34.286-1.7857 0.35715 28.571-7.1429 2.5 1.0714 5.3571 6.4286-2.5 5.7143-0.35714-0.17857-35.714h26.071c4.5833 0.23809 17.024-0.59524-0.53571-6.7857l-67.857 0.71428z" fill="url(#u)" stroke="#000" stroke-width="1.5"/>
  <path d="m549.29 425.58c1.7857 0 105.36-7.5 105.36-7.5v8.5714l-114.64 12.5-1.0714-11.786 10.357-1.7857z" fill="url(#t)" stroke="#000" stroke-width="1.5"/>
  <g transform="translate(-42.179 -13.03)">
   <path transform="matrix(1.0116 0 0 1.0116 -19.128 -20.21)" d="m430.32 481.63c0 23.431-18.995 42.426-42.426 42.426s-42.426-18.995-42.426-42.426 18.995-42.426 42.426-42.426 42.426 18.995 42.426 42.426z" fill="#1a1a1a" stroke="#000" stroke-linejoin="round" stroke-width="2.6"/>
   <path transform="matrix(.56647 0 0 .56647 153.52 194.15)" d="m430.32 481.63c0 23.431-18.995 42.426-42.426 42.426s-42.426-18.995-42.426-42.426 18.995-42.426 42.426-42.426 42.426 18.995 42.426 42.426z" fill="#e6e6e6" opacity=".70408" stroke="#000" stroke-linejoin="round" stroke-width="2.6"/>
   <path transform="matrix(.22659 0 0 .22659 285.36 357.85)" d="m430.32 481.63c0 23.431-18.995 42.426-42.426 42.426s-42.426-18.995-42.426-42.426 18.995-42.426 42.426-42.426 42.426 18.995 42.426 42.426z" fill="#1a1a1a" opacity=".70408" stroke="#000" stroke-linejoin="round" stroke-width="2.6"/>
   <path transform="translate(139.64 112.86)" d="m236.43 336.29c0 1.1835-1.6789 2.1429-3.75 2.1429s-3.75-0.95939-3.75-2.1429 1.6789-2.1429 3.75-2.1429 3.75 0.95939 3.75 2.1429z"/>
   <path transform="translate(141.07 148.21)" d="m236.43 336.29c0 1.1835-1.6789 2.1429-3.75 2.1429s-3.75-0.95939-3.75-2.1429 1.6789-2.1429 3.75-2.1429 3.75 0.95939 3.75 2.1429z"/>
   <path transform="matrix(.062718 .99803 -.99803 .062718 676.93 213.34)" d="m236.43 336.29c0 1.1835-1.6789 2.1429-3.75 2.1429s-3.75-0.95939-3.75-2.1429 1.6789-2.1429 3.75-2.1429 3.75 0.95939 3.75 2.1429z"/>
   <path transform="matrix(-.033117 .99945 -.99945 -.033117 734.35 245.59)" d="m236.43 336.29c0 1.1835-1.6789 2.1429-3.75 2.1429s-3.75-0.95939-3.75-2.1429 1.6789-2.1429 3.75-2.1429 3.75 0.95939 3.75 2.1429z"/>
  </g>
  <path d="m585.63 335.76 4.5457-5.5558-4.0406-14.647-7.5762-1.5152" fill="none" stroke="#000" stroke-width="2.3"/>
  <path d="m105.48 334.31-5.3491-4.7872 1.7302-15.095 7.2513-2.667" fill="none" stroke="#000" stroke-width="2.3"/>
  <rect x="95.707" y="370.11" width="8.0812" height="10.607" fill="url(#s)" stroke="#000" stroke-linejoin="round"/>
  <path d="m536.13 168.58c-17.442-33.139-314.1-71.422-378.81-38.386-9.945 5.0773-23.234 28.284-23.234 28.284l-31.315 187.89 1.0102 51.518 50.508 42.426h129.3l12.122-18.183h66.67l17.173 16.162h161.62l46.467-41.416 1.0102-49.497-42.426-159.6-10.102-19.193z" fill="url(#v)" filter="url(#q)" stroke="#000" stroke-width="1.8"/>
  <rect x="149.28" y="198.92" width="146.4" height="102.96" rx="24.962" ry="21.762" fill="url(#z)" stroke="#000" stroke-linejoin="round" stroke-width="4.175"/>
  <path d="m547.5 424.51c0.47619 0 0.95238 0 0 0z" fill="none" stroke="#000" stroke-width="1px"/>
  <rect x="472.49" y="348.39" width="18.688" height="17.173" rx="24.962" ry="0" fill="#4d4d4d" stroke="#000" stroke-linejoin="round"/>
  <path d="m103.51 370.62 0.3748 19.188h483.94l0.37481-19.188h-484.68z" fill="url(#x)"/>
  <path d="m588.57 348.08 4.2857 3.9286-1.0714 30.357 2.1429 2.1429-0.71429 6.0714-1.7857 0.35714 0.71428 10-2.1428 1.0714 1.0714 10.357 1.4286 0.35714v8.9286s-44.643 4.2857-43.214 2.8571c1.4286-1.4286 39.286-76.429 39.286-76.429z" fill="#fff" stroke="#000" stroke-width="1px"/>
  <path d="m130.3 182.49-1.2892 10.265 418.82 1.7429-4.1798-10.584-413.35-1.4245z" color="#000000" fill="url(#y)" style="block-progression:tb;text-indent:0;text-transform:none"/>
  <path d="m104.71 340.31c2.0203 0.50508 481.42 0 481.42 0" fill="none" stroke="#00f" stroke-width="1px"/>
  <path d="m586.37 344.35-482.46-1.01" fill="none" stroke="#00f" stroke-width="1px"/>
  <path d="m463.86 197.96 0.0458 235.03h-76.772l-6e-3 -234.99c-0.23952-17.18 16.74-31.635 37.919-31.909 21.179-0.27411 38.537 13.737 38.771 31.294 4e-3 0.30445 0.0488 0.271 0.0418 0.57544z" fill="url(#w)" stroke="#000" stroke-linejoin="round" stroke-width="2.6689"/>
  <rect x="391.18" y="302.93" width="14.142" height="4.5457" rx="24.962" ry="4.5457"/>
  <path d="m273.49 247.88c0 18.131-23.58 33.219-47.477 40.911-25.105 8.0812-51.518-26.82-51.518-44.952 0-18.131 20.352-32.83 45.457-32.83s63.64 20.759 53.538 36.871z" fill="#f2f2f2" opacity=".18123"/>
  <path d="m472.5 350.81h18.94" fill="none" stroke="#000" stroke-width="1px"/>
  <path d="m472.86 363.85h18.94" fill="none" stroke="#000" stroke-width="1px"/>
  <path d="m472.5 360.59h18.94" fill="none" stroke="#000" stroke-width="1px"/>
  <path d="m472.5 357.33h18.94" fill="none" stroke="#000" stroke-width="1px"/>
  <path d="m471.96 354.07h18.94" fill="none" stroke="#000" stroke-width="1px"/>
 </g>
</svg>
