<?xml version="1.0" encoding="utf-8"?>
<!-- Generator: Adobe Illustrator 15.0.0, SVG Export Plug-In . SVG Version: 6.00 Build 0)  -->
<!DOCTYPE svg PUBLIC "-//W3C//DTD SVG 1.1//EN" "http://www.w3.org/Graphics/SVG/1.1/DTD/svg11.dtd">
<svg version="1.1" xmlns="http://www.w3.org/2000/svg" xmlns:xlink="http://www.w3.org/1999/xlink" x="0px" y="0px"
	 width="1740.175px" height="754.184px" viewBox="0 0 1740.175 754.184" enable-background="new 0 0 1740.175 754.184"
	 xml:space="preserve">
<g id="Layer_4" display="none">
	<g display="inline" opacity="0.2">
		<defs>
			<rect id="SVGID_1_" x="-168.34" y="-303.893" opacity="0.2" width="2418.588" height="1283.8"/>
		</defs>
		<clipPath id="SVGID_2_">
			<use xlink:href="#SVGID_1_"  overflow="visible"/>
		</clipPath>
		<g transform="matrix(1 0 0 1 1.525879e-05 0)" clip-path="url(#SVGID_2_)">
			
				<image overflow="visible" width="211" height="112" xlink:href="../Library/Mobile Documents/com~apple~CloudDocs/Screenshots/Screen Shot 2019-09-27 at 9.43.20 PM.png"  transform="matrix(11.4625 0 0 11.4625 -168.3403 -303.8931)">
			</image>
		</g>
	</g>
</g>
<g id="Layer_1">
	
		<image display="none" overflow="visible" opacity="0.33" width="80" height="80" xlink:href="Rv_logo.png"  transform="matrix(2.425 0 0 2.425 931.9678 -120.4824)">
	</image>
</g>
<g id="Layer_2">
	<g>
		<path d="M1080.533,192.95h89.371c14.219,0,25.221,3.215,33.007,9.646c7.787,6.432,13.034,15.461,15.741,27.083
			c2.708,11.626,4.062,26.461,4.062,44.517c0,16.478-2.146,29.339-6.432,38.594c-4.29,9.254-11.737,15.688-22.343,19.295
			c8.801,1.809,15.175,6.209,19.127,13.201c3.946,6.999,5.923,16.479,5.923,28.438l-0.676,110.021h-56.873V370
			c0-8.126-1.583-13.313-4.739-15.574c-3.164-2.251-8.917-3.383-17.266-3.383v132.701h-58.903V192.95z M1153.655,300.601
			c8.125,0,12.187-8.801,12.187-26.405c0-7.67-0.339-13.426-1.017-17.267c-0.676-3.835-1.92-6.483-3.723-7.953
			c-1.809-1.466-4.4-2.2-7.786-2.2h-13.541v53.825H1153.655z"/>
		<path d="M1268.752,483.745l-35.885-291.136h55.521l21.327,198.042l18.956-198.042h55.518l-35.882,291.136H1268.752z"/>
		<path d="M1400.778,483.745V192.95h59.917l26.743,139.135V192.95h56.196v290.795h-56.873l-29.112-145.566v145.566H1400.778z"/>
		<path d="M1569.357,192.95h78.878c21.213,0,36.614,5.192,46.209,15.572c9.592,10.383,14.389,27.31,14.389,50.778v12.865
			c0,27.759-9.933,44.347-29.791,49.764c12.188,3.161,20.764,10.496,25.729,22.005c4.963,11.508,7.447,26.745,7.447,45.7
			c0,30.924-4.628,54.333-13.879,70.242c-9.257,15.914-25.955,23.868-50.104,23.868h-78.878V192.95z M1638.08,302.293
			c4.962,0,8.346-1.861,10.155-5.586c1.805-3.724,2.709-8.971,2.709-15.74v-29.114c0-9.479-4.18-14.219-12.525-14.219h-12.187
			v64.659H1638.08z M1654.67,410.962v-36.224c0-8.802-1.304-15.457-3.896-19.973c-2.598-4.512-7.166-6.772-13.708-6.772h-10.834
			v84.293l5.756,0.341C1647.104,432.627,1654.67,425.406,1654.67,410.962z"/>
	</g>
</g>
<g id="Layer_3">
	
		<line fill="none" stroke="#000000" stroke-width="18" stroke-miterlimit="10" x1="908.764" y1="184.828" x2="576.263" y2="184.828"/>
	
		<line fill="none" stroke="#000000" stroke-width="18" stroke-miterlimit="10" x1="576.263" y1="184.828" x2="576.263" y2="606.828"/>
	<path fill="none" stroke="#000000" stroke-width="18" stroke-miterlimit="10" d="M475.558,325.494
		c0,13.239-10.735,23.977-23.978,23.977H175.039c-13.243,0-23.978-10.737-23.978-23.977V184.828
		c0-13.243,10.735-23.978,23.978-23.978H451.58c13.242,0,23.978,10.734,23.978,23.978V325.494z"/>
	<g>
		<g>
			<rect x="565.474" y="104.9" width="21.577" height="21.58"/>
			<rect x="614.027" y="104.9" width="21.58" height="21.58"/>
			<rect x="659.398" y="104.9" width="21.58" height="21.58"/>
			<rect x="706.155" y="104.9" width="21.58" height="21.58"/>
			<rect x="753.511" y="104.9" width="21.58" height="21.58"/>
			<rect x="799.43" y="104.9" width="21.579" height="21.58"/>
			<rect x="821.009" y="524.104" width="21.579" height="21.581"/>
			<rect x="868.004" y="524.104" width="21.579" height="21.581"/>
			<rect x="916.343" y="524.104" width="21.58" height="21.581"/>
		</g>
		<g>
			<rect x="66.94" y="442.382" width="21.579" height="21.578"/>
			<rect x="113.098" y="442.382" width="21.579" height="21.578"/>
			<rect x="159.854" y="442.382" width="21.581" height="21.578"/>
			<rect x="206.009" y="442.382" width="21.581" height="21.578"/>
			<rect x="252.767" y="442.382" width="21.581" height="21.578"/>
			<rect x="299.521" y="442.382" width="21.58" height="21.578"/>
			<rect x="344.023" y="442.382" width="21.579" height="21.578"/>
			<rect x="392.578" y="442.382" width="21.581" height="21.578"/>
			<rect x="438.134" y="442.382" width="21.58" height="21.578"/>
			<rect x="485.546" y="442.382" width="21.58" height="21.578"/>
			<rect x="531.703" y="442.382" width="21.58" height="21.578"/>
		</g>
	</g>
	<polyline fill="none" stroke="#000000" stroke-width="18" stroke-miterlimit="10" points="659.398,184.828 659.398,315.902 
		764.302,372.248 931.928,372.248 	"/>
	<path fill="#FFFFFF" stroke="#000000" stroke-width="18" stroke-miterlimit="10" d="M941.565,490.217
		c-7.097,3.263-15.201,5.131-23.831,5.131c-27.479,0-49.73-18.894-49.73-42.2c0-23.257,22.252-42.151,49.73-42.151
		c8.006,0,15.584,1.632,22.297,4.457L941.565,490.217z"/>
	<path fill="none" stroke="#000000" stroke-width="18" stroke-miterlimit="10" d="M943.917,606.844H48.357
		c0,0-8.392,7.576-5.994-49.971l-0.432-405.218c0,0,16.4-105.502,109.145-103.104l676.548-0.047c0,0,123.484,19.613,73.131,136.336
		h-59.944l98.309,186.207l0.911,44.405c-6.713-2.825-14.291-4.457-22.297-4.457c-27.479,0-49.73,18.895-49.73,42.151
		c0,23.307,22.252,42.2,49.73,42.2c8.63,0,16.733-1.868,23.831-5.131L943.917,606.844z"/>
	<path fill="#FFFFFF" stroke="#000000" stroke-width="18" stroke-miterlimit="10" d="M817.376,607.627
		c0,56.501-45.802,102.302-102.304,102.302c-56.501,0-102.306-45.801-102.306-102.302s45.805-102.309,102.306-102.309
		C771.574,505.319,817.376,551.126,817.376,607.627z"/>
	<path fill="#FFFFFF" stroke="#000000" stroke-width="18" stroke-miterlimit="10" d="M339.287,606.828
		c0,56.506-45.804,102.306-102.305,102.306c-56.502,0-102.305-45.8-102.305-102.306c0-56.501,45.803-102.306,102.305-102.306
		C293.483,504.522,339.287,550.327,339.287,606.828z"/>
	<g>
		<path fill="none" stroke="#000000" stroke-width="13" stroke-miterlimit="10" d="M270.22,606.828
			c0,18.351-14.879,33.239-33.236,33.239c-18.357,0-33.239-14.889-33.239-33.239c0-18.354,14.881-33.236,33.239-33.236
			C255.341,573.591,270.22,588.474,270.22,606.828z"/>
		<path fill="none" stroke="#000000" stroke-width="13" stroke-miterlimit="10" d="M748.31,607.627
			c0,18.353-14.877,33.233-33.235,33.233c-18.359,0-33.238-14.881-33.238-33.233c0-18.357,14.879-33.239,33.238-33.239
			C733.433,574.388,748.31,589.27,748.31,607.627z"/>
	</g>
</g>
</svg>
