<?xml version="1.0" encoding="utf-8"?>
<!-- Generator: Adobe Illustrator 23.0.6, SVG Export Plug-In . SVG Version: 6.00 Build 0)  -->
<svg version="1.1" id="Layer_1" xmlns="http://www.w3.org/2000/svg" xmlns:xlink="http://www.w3.org/1999/xlink" x="0px" y="0px"
	 viewBox="0 0 196.8 76.7" style="enable-background:new 0 0 196.8 76.7;" xml:space="preserve">
<style type="text/css">
	.st0{fill:#FEFEFE;}
	.st1{fill:#FDFDFD;}
	.st2{fill:#010101;}
	.st3{fill:#020202;}
	.st4{fill:#FAFAFA;}
	.st5{fill:#F8F8F8;}
	.st6{fill:#1B1B1B;}
	.st7{fill:#050505;}
	.st8{fill:none;}
	.st9{font-family:'MyriadPro-Regular';}
	.st10{font-size:6px;}
	.st11{stroke:#000000;stroke-width:0.5;stroke-miterlimit:10;}
	.st12{fill:#191919;}
</style>
<title>RVNBIcon</title>
<path class="st0" d="M114.5,20.9l0.6-1.4c2-0.3,4.1-0.5,6.2-0.6c20.2,0.2,40.5,0.4,60.7,0.6l0.8,1.4l1.9,4.9h-29.1v25.4
	c-7.1-1.5-14.3,2-20.9-2.3l-1.4-1.5c-1.4-2.9-4-2.2-6.3-1.9c-1.2,0.1-2.3,1.2-3.5,1.9l-1.4,1.4c-2.6,2-5.5,2.9-9.2,1.5
	C114.1,40.6,111.4,30.7,114.5,20.9z M122.2,36.3c0.9,0.3,1.9,0.5,2.9,0.7c6.2,0.1,12.4,0.1,18.7,0c1-0.1,1.9-0.3,2.9-0.7
	c0.3,0,0.8,0.1,1-0.1c1.6-1.5,1.6-9.5,0-11c-0.2-0.2-0.7-0.1-1-0.1c-0.9-0.3-1.9-0.5-2.9-0.7c-6.2-0.1-12.4-0.1-18.7,0
	c-1,0.1-1.9,0.3-2.9,0.7c-0.4,0-0.8-0.1-1,0.1c-1.6,1.5-1.6,9.5,0,11C121.3,36.4,121.8,36.3,122.2,36.3z"/>
<path class="st1" d="M180.9,28.6l4,6.6c-0.6,0.6-1.2,1.6-1.9,1.7c-6.4,1-12.3-0.8-18.2-2.8v-7.6L180.9,28.6z"/>
<path class="st2" d="M180.9,28.6l-16.1-2.1v7.6l-0.7,0.8c-0.4-2.5-0.7-5-1.1-7.5h-5.8v24l5.4-2.5c0,2.1,0,4.2,0,6.2
	c-7.7-5.7-16.5-1.6-24.7-2.7c-0.7-0.1-1.7,1.4-2.5,2.1l-0.7-5.7c6.6,4.3,13.8,0.9,20.9,2.3V25.8h29.2l-1.9-4.9
	c2.3-1.3,2.5,0.7,2.7,1.9c0.2,1.7,0.7,3.8-2,4.3C182.6,27.5,181.7,28,180.9,28.6z"/>
<path class="st3" d="M164,34.9l0.7-0.8c5.9,1.9,11.9,3.7,18.2,2.8c0.7-0.1,1.3-1.1,1.9-1.7c2.2-0.2,2.7,1.3,2.8,3
	c0.3,3.6,0.4,7.3,0.7,10.9c0.2,2.3-0.6,3.5-3.1,3.2c-1.6-0.1-3.2-0.1-4.8,0c-1.7,0-3.5-0.5-4.1,2c-0.1,0.4-1.7,0.5-2.7,0.7
	c2-2.2,1.3-4.6,0.6-7l2.6,1.7c0.6,0.4,1.2,1.1,1.8,1.1c2.7,0.1,5.5,0,8.8,0l-2.6-5.5c-0.7,0.1-1.5-0.1-2.2-0.3
	c-1-0.8-1.9-1.6-2.6-2.6c0.8-0.9,1.8-1.8,2.8-2.5c0.9-0.3,1.9-0.5,2.8-0.6l-0.1-1c-3.6,0-7.4,0.5-10.9-0.1S167.5,36,164,34.9z"/>
<path class="st4" d="M167.6,47.7l-3.6-0.2l-1.4,1.4v6.2c1.2,0.8,2.4,1.4,3.5,1.7C162.8,54.8,163.3,48.7,167.6,47.7z"/>
<path class="st4" d="M174.4,48.2l-3.8-0.3c3.5,1.3,3.9,6.2,1.4,8.5c0.6-0.4,1.2-0.8,1.7-1.4C175.7,52.9,175.1,50.6,174.4,48.2z"/>
<path class="st2" d="M183.7,20.6c-34-1-58.8-1.6-62.4-1.7c-0.4,0-1.2,0-2.4,0.2c-2.8,0.4-5.1,1.5-6.8,2.8c1.9-1.6,4.7-3.4,8.5-4.1
	c0.9-0.2,1.6-0.2,1.9-0.2c18-0.2,36.1-0.2,54.1,0c0.5,0,0.9,0.1,1.4,0.2C180.6,18.3,182.5,19.5,183.7,20.6z"/>
<path class="st5" d="M134.7,48.8l-1.4-1.4h-9.7l-1.4,1.4v6.3l1.5,0.7h0.4c-1.9-2.9-0.6-8,4-8c4.6,0,5.9,5.1,4,8h1.2l2.2-1.3
	L134.7,48.8z"/>
<path class="st2" d="M122.2,48.8v6.3l-3.1-2.7c-7.4-0.4-7.4-0.4-7.4-8.7c0-6.2-0.1-12.3,0.1-18.4c0.1-1.7-0.7-4.5,2.8-4.3
	c-3.2,9.8-0.5,19.7-1.6,29.4C116.7,51.7,119.5,50.8,122.2,48.8z"/>
<path class="st6" d="M132,55.8c-0.8,1.2-2.1,2-4,2c-1.9,0-3.2-0.8-4-2h-0.4c1.6,2.6,4.3,2.2,6.7,1.9c1-0.1,1.9-1.2,2.9-1.9H132z"/>
<path class="st2" d="M122.2,25.1c0.9-0.3,1.9-0.5,2.9-0.7c6.2-0.1,12.4-0.1,18.7,0c1,0.1,1.9,0.3,2.9,0.7l-0.8,0.7h-22.9L122.2,25.1
	z"/>
<path class="st2" d="M146.6,36.3c-0.9,0.3-1.9,0.5-2.9,0.7c-6.2,0.1-12.4,0.1-18.7,0c-1-0.1-1.9-0.3-2.9-0.7l0.8-0.7h22.9
	L146.6,36.3z"/>
<path class="st7" d="M122.9,35.5l-0.8,0.7c-0.4,0-0.8,0.1-1-0.1c-1.6-1.5-1.6-9.5,0-11c0.2-0.2,0.7-0.1,1-0.1l0.8,0.7V35.5z"/>
<path class="st7" d="M146.6,36.3l-0.8-0.7v-9.7l0.8-0.7c0.3,0,0.8-0.1,1,0.1c1.6,1.5,1.6,9.5,0,11C147.4,36.4,146.9,36.3,146.6,36.3
	z"/>
<path class="st6" d="M133.3,47.4h-9.7c1.2-0.7,2.3-1.8,3.5-1.9C129.3,45.3,131.9,44.5,133.3,47.4z"/>
<path class="st0" d="M164,47.5l-1.4,1.4l-5.4,2.5v-24h5.8c0.3,2.4,0.7,4.9,1.1,7.5c3.5,1.2,7,2.8,10.6,3.4s7.3,0.1,10.9,0.1l0.1,1
	c-1,0-1.9,0.2-2.8,0.6c-1,0.7-1.9,1.6-2.8,2.5c0.8,1,1.7,1.8,2.6,2.6c0.7,0.3,1.4,0.4,2.2,0.3l2.6,5.5c-3.3,0-6,0.1-8.8,0
	c-0.6,0-1.2-0.7-1.8-1.1l-2.6-1.7l0.1,0.1c-0.9-0.9-1.8-1.7-2.9-2.4C168.9,44.5,165.2,45.4,164,47.5z"/>
<path class="st6" d="M168.8,47.6c0.6,0,1.2,0.1,1.7,0.3l4,0.3c-0.9-0.9-1.8-1.7-2.9-2.4c-2.7-1.3-6.4-0.3-7.6,1.7l3.9,0.3
	C168.2,47.7,168.5,47.6,168.8,47.6z"/>
<path class="st8" d="M141.3,28.2v4.9h-14.8v-4.9L141.3,28.2z"/>
<text transform="matrix(1 0 0 1 126.4727 32.5051)" class="st9 st10">RVNB</text>
<path d="M0,26.9v-2.2h6.2v2.8H5.6L0,26.9z M6.8,48.8l5.6,0.6v2.2H0v-2.2l5.6-0.6H6.8z M3,37.4c0-4.2,0-8.5-0.1-12.7h6.6
	C9.3,28.8,9.3,33,9.3,37.5v1.3c0,4.4,0,8.6,0.1,12.9H2.8C3,47.5,3,43.2,3,38.9L3,37.4z M6.2,36.9h4.5c3.8,0,5-2.4,5-5
	c0-3.3-1.7-4.9-4.8-4.9H6.2v-2.4h6.3c6,0,9.4,2.6,9.4,6.8c0,3.1-2.2,6.3-9,6.7v-0.4c6.1,0.2,7.6,2.3,8.3,6.7l1,6.3L19,48.8l5.8,0.7
	v2.2c-1.4,0.4-2.8,0.6-4.2,0.6c-3.3,0-5.2-1-5.6-4.2l-0.7-4.8c-0.4-2.8-1.3-4-3.6-4H6.2V36.9z"/>
<path d="M28.6,27.5L23,26.9v-2.2h12.4v2.1l-5.5,0.7H28.6z M24.4,24.7h6.9l6.5,20.8l-1.1,0.9l6.8-21.7H46l-8.8,27h-3.8L24.4,24.7z
	 M43.7,27.5l-4-0.7v-2.1h8.3v2.2l-3.7,0.6H43.7z"/>
<path d="M49.2,49.4l4.1-0.6h1.1l4.9,0.6v2.2H49.2V49.4z M51.2,26.1l2.2,1.2l-4.2-0.4v-2.2h8.7l13.8,20.2v6.8h-3.3L51.2,26.1z
	 M52.5,24.7l2.5,2.2v24.7h-2.5L52.5,24.7z M64.8,24.7H75v2.2l-3.9,0.6H70l-5.2-0.6L64.8,24.7z M69.2,24.7h2.5v27L69.3,49L69.2,24.7z
	"/>
<path d="M77,26.9v-2.2h6.2v2.8h-0.6L77,26.9z M83.2,48.8v2.8H77v-2.2l5.6-0.6H83.2z M79.9,37.6c0-4.3,0-8.6-0.1-12.9h6.6
	c-0.1,4.2-0.1,8.5-0.1,12.9v1c0,4.5,0,8.8,0.1,13.1h-6.6c0.1-4.2,0.1-8.5,0.1-12.9V37.6z M83.2,36.5h4.2c3.3,0,4.8-1.7,4.8-4.9
	c0-3-1.4-4.5-4.4-4.5h-4.6v-2.4h6.2c6.5,0,9,2.7,9,6.3c0,3.1-1.8,5.7-8,6.4v-0.4c6.8,0.4,9.5,3,9.5,7c0,3.4-2.4,7.6-11.9,7.6h-4.8
	v-2.4h4.4c3.6,0,5.6-1.8,5.6-5.3c0-3.7-1.8-5.4-5.7-5.4h-4.4L83.2,36.5z"/>
<path class="st11" d="M162.2,37.9h3l-3.4-0.8l-0.6-0.2L162.2,37.9z"/>
<path class="st11" d="M170.2,39.9"/>
<path d="M168.7,45.7c-4.2,0-7.7,3.2-7.7,7.1c0,3.9,3.4,7.1,7.7,7.1s7.7-3.2,7.7-7.1C176.4,48.9,172.9,45.7,168.7,45.7z M168.8,57.6
	c-6.4,0-6.4-10,0-10C175.2,47.6,175.2,57.6,168.8,57.6z"/>
<path class="st12" d="M128.3,45.5c-4.6,0-8.3,3.2-8.3,7.2s3.7,7.2,8.3,7.2c4.6,0,8.3-3.2,8.3-7.2S132.8,45.5,128.3,45.5z
	 M128.1,57.8c-6.4,0-6.4-10,0-10C134.5,47.8,134.5,57.8,128.1,57.8z"/>
<rect x="136.6" y="50.2" width="23.4" height="2"/>
<circle class="st2" cx="128.1" cy="52.8" r="1.6"/>
<circle class="st2" cx="168.8" cy="52.8" r="1.4"/>
</svg>
