<svg id="Layer_1" data-name="Layer 1" xmlns="http://www.w3.org/2000/svg" viewBox="0 0 188.45 42.56"><defs><style>.cls-1{fill:#fefefe;}.cls-2{fill:#fdfdfd;}.cls-3{fill:#010101;}.cls-4{fill:#020202;}.cls-5{fill:#fafafa;}.cls-6{fill:#f8f8f8;}.cls-7{fill:#1b1b1b;}.cls-8{fill:#050505;}.cls-9{font-size:6px;font-family:MyriadPro-Regular, Myriad Pro;}.cls-10{letter-spacing:0.02em;}.cls-11{stroke:#000;stroke-miterlimit:10;stroke-width:0.5px;}.cls-12{fill:#191919;}</style></defs><title>RVNBIcon</title><path class="cls-1" d="M114.54,20.91l.65-1.4a53.12,53.12,0,0,1,6.16-.63q30.36.26,60.71.62l.76,1.41,1.92,4.91H155.61V51.17c-7.11-1.47-14.33,2-20.89-2.33l-1.43-1.47c-1.39-2.88-4-2.15-6.25-1.9-1.22.13-2.32,1.24-3.48,1.9l-1.4,1.4c-2.65,2-5.49,2.92-9.22,1.51C114.08,40.64,111.37,30.66,114.54,20.91Zm7.62,15.36a13.43,13.43,0,0,0,2.87.66q9.33.09,18.67,0a13.43,13.43,0,0,0,2.87-.66c.34,0,.82.09,1-.1,1.59-1.52,1.59-9.46,0-11-.19-.18-.67-.07-1-.1a12.84,12.84,0,0,0-2.87-.65q-9.33-.09-18.67,0a12.84,12.84,0,0,0-2.87.65c-.35,0-.82-.08-1,.1-1.6,1.51-1.6,9.47,0,11C121.34,36.37,121.81,36.25,122.16,36.27Z" transform="translate(0 -17.38)"/><path class="cls-2" d="M180.85,28.62l4,6.56c-.64.59-1.22,1.6-1.93,1.71-6.35,1-12.31-.83-18.23-2.77V26.51Z" transform="translate(0 -17.38)"/><path class="cls-3" d="M180.85,28.62l-16.11-2.11v7.61l-.73.75c-.36-2.53-.71-5-1-7.46h-5.79v24l5.43-2.48v6.23c-7.69-5.65-16.48-1.63-24.7-2.69-.74-.09-1.68,1.39-2.53,2.14l-.68-5.71c6.56,4.34,13.78.86,20.89,2.33V25.82h29.16l-1.88-4.91c2.26-1.26,2.49.65,2.67,1.95.24,1.74.68,3.76-2,4.34A10.44,10.44,0,0,0,180.85,28.62Z" transform="translate(0 -17.38)"/><path class="cls-4" d="M164,34.87l.73-.75c5.92,1.94,11.88,3.73,18.23,2.77.71-.11,1.29-1.12,1.93-1.71,2.18-.18,2.69,1.25,2.81,3,.26,3.64.42,7.29.73,10.93.2,2.34-.55,3.48-3.07,3.23-1.61-.08-3.23-.08-4.84,0s-3.48-.48-4.07,2c-.1.43-1.74.49-2.66.73,2-2.17,1.26-4.56.59-7l2.57,1.65c.59.38,1.17,1.08,1.77,1.11,2.74.12,5.48,0,8.78,0l-2.64-5.5a4.62,4.62,0,0,1-2.17-.34A16,16,0,0,1,180,42.38a18.46,18.46,0,0,1,2.79-2.51,8.63,8.63,0,0,1,2.84-.55l-.15-1c-3.64,0-7.36.46-10.91-.12S167.52,36,164,34.87Z" transform="translate(0 -17.38)"/><path class="cls-5" d="M167.65,47.74,164,47.5l-1.4,1.42v6.23a15.57,15.57,0,0,0,3.5,1.74C162.82,54.75,163.33,48.66,167.65,47.74Z" transform="translate(0 -17.38)"/><path class="cls-5" d="M174.4,48.2,170.63,48c3.45,1.29,3.92,6.22,1.41,8.5a8.58,8.58,0,0,0,1.74-1.36C175.74,52.9,175.06,50.55,174.4,48.2Z" transform="translate(0 -17.38)"/><path class="cls-3" d="M183.74,20.55c-34-1-58.81-1.63-62.39-1.67a15.71,15.71,0,0,0-2.41.16,16.38,16.38,0,0,0-6.84,2.77,18.64,18.64,0,0,1,8.51-4.07,12.27,12.27,0,0,1,1.9-.23q27.06-.26,54.12,0a5.77,5.77,0,0,1,1.36.23A14.07,14.07,0,0,1,183.74,20.55Z" transform="translate(0 -17.38)"/><path class="cls-6" d="M134.74,48.84l-1.4-1.44h-9.73l-1.4,1.4v6.28l1.47.73h.41c-1.94-2.92-.62-8,4-8s5.91,5.07,4,8h1.24l2.17-1.26Z" transform="translate(0 -17.38)"/><path class="cls-3" d="M122.16,48.81v6.28L119,52.39c-7.36-.41-7.36-.41-7.36-8.69,0-6.15-.12-12.3.09-18.44.06-1.7-.72-4.54,2.75-4.35-3.17,9.75-.46,19.73-1.6,29.41C116.67,51.73,119.51,50.78,122.16,48.81Z" transform="translate(0 -17.38)"/><path class="cls-7" d="M132,55.82a4.91,4.91,0,0,1-7.91,0h-.44c1.64,2.63,4.28,2.16,6.67,1.9,1-.11,1.9-1.23,2.9-1.9Z" transform="translate(0 -17.38)"/><path class="cls-3" d="M122.16,25.09a12.84,12.84,0,0,1,2.87-.65q9.33-.09,18.67,0a12.84,12.84,0,0,1,2.87.65l-.76.73H122.92Z" transform="translate(0 -17.38)"/><path class="cls-3" d="M146.57,36.27a13.43,13.43,0,0,1-2.87.66q-9.33.09-18.67,0a13.43,13.43,0,0,1-2.87-.66l.76-.73h22.89Z" transform="translate(0 -17.38)"/><path class="cls-8" d="M122.92,35.54l-.76.73c-.35,0-.82.09-1-.1-1.6-1.51-1.6-9.47,0-11,.19-.18.66-.07,1-.1l.76.74Z" transform="translate(0 -17.38)"/><path class="cls-8" d="M146.57,36.27l-.76-.73V25.82l.76-.73c.34,0,.82-.08,1,.1,1.59,1.52,1.59,9.46,0,11C147.39,36.37,146.91,36.25,146.57,36.27Z" transform="translate(0 -17.38)"/><path class="cls-7" d="M133.29,47.37h-9.73c1.16-.66,2.26-1.77,3.48-1.9C129.27,45.26,131.9,44.53,133.29,47.37Z" transform="translate(0 -17.38)"/><path class="cls-1" d="M164,47.45l-1.4,1.42-5.43,2.5v-24h5.79c.34,2.41.69,4.93,1.05,7.46,3.53,1.16,7,2.77,10.61,3.36s7.27.12,10.91.12l.15,1a8.63,8.63,0,0,0-2.84.55A18.46,18.46,0,0,0,180,42.37,16,16,0,0,0,182.68,45a4.62,4.62,0,0,0,2.17.34l2.64,5.5c-3.3,0-6,.07-8.78,0-.6,0-1.18-.73-1.77-1.11l-2.57-1.65.13.07a14.51,14.51,0,0,0-2.88-2.42C168.89,44.45,165.18,45.37,164,47.45Z" transform="translate(0 -17.38)"/><path class="cls-7" d="M168.8,47.63a5.2,5.2,0,0,1,1.68.26l4,.27a14.51,14.51,0,0,0-2.88-2.42c-2.73-1.29-6.44-.29-7.64,1.71l3.87.26A5.8,5.8,0,0,1,168.8,47.63Z" transform="translate(0 -17.38)"/><text class="cls-9" transform="translate(126.47 15.12)"><tspan class="cls-10">R</tspan><tspan x="3.32" y="0">VNB</tspan></text><path d="M0,26.87v-2.2H6.19v2.82H5.58ZM6.79,48.81l5.58.61v2.21H0V49.42l5.58-.61ZM3,37.37c0-4.23,0-8.5-.12-12.72H9.42C9.3,28.83,9.3,33,9.3,37.48v1.26c0,4.37,0,8.64.12,12.87H2.84C3,47.46,3,43.2,3,38.89Zm3.28-.45h4.5c3.82,0,5-2.38,5-5,0-3.3-1.68-4.89-4.82-4.89H6.19V24.67h6.32c6,0,9.4,2.55,9.4,6.81,0,3.13-2.19,6.35-9,6.74V37.8c6.07.2,7.59,2.32,8.27,6.73l1,6.33L19,48.75l5.77.67v2.21a14,14,0,0,1-4.21.58c-3.27,0-5.2-1-5.58-4.2l-.71-4.76c-.39-2.76-1.34-4-3.64-4H6.24Z" transform="translate(0 -17.38)"/><path d="M28.57,27.49,23,26.87v-2.2H35.4v2.11l-5.47.71ZM24.4,24.67h6.94l6.47,20.76-1.07.94,6.81-21.7H46l-8.8,27H33.48Zm19.34,2.82-4-.71V24.67h8.32v2.2l-3.65.62Z" transform="translate(0 -17.38)"/><path d="M49.2,49.42l4.09-.61h1.1l5,.61v2.21H49.2Zm2-23.3,2.21,1.16-4.17-.38V24.67h8.68l13.82,20.2v6.84H68.47Zm1.26-1.45,2.48,2.23V51.63H52.47Zm12.38,0H75v2.2l-3.9.62H70l-5.17-.62Zm4.4,0h2.5v27L69.26,49Z" transform="translate(0 -17.38)"/><path d="M77,26.87v-2.2h6.19v2.82h-.61Zm6.19,21.94v2.82H77V49.42l5.58-.61ZM79.93,37.57c0-4.29,0-8.62-.12-12.9h6.58c-.11,4.2-.11,8.53-.11,12.9v1c0,4.48,0,8.78.11,13.07H79.81c.12-4.21.12-8.5.12-12.87Zm3.23-1.11h4.19c3.26,0,4.77-1.69,4.77-4.93,0-3-1.4-4.5-4.41-4.5H83.16V24.67H89.4c6.52,0,9,2.73,9,6.34,0,3.06-1.77,5.65-8,6.42v-.37c6.81.45,9.49,3,9.49,7,0,3.44-2.36,7.57-11.93,7.57H83.2V49.27h4.45c3.56,0,5.62-1.81,5.62-5.27,0-3.73-1.82-5.36-5.65-5.36H83.2Z" transform="translate(0 -17.38)"/><path class="cls-11" d="M162.24,37.87h3L161.87,37l-.63-.16Z" transform="translate(0 -17.38)"/><path class="cls-11" d="M170.24,39.87" transform="translate(0 -17.38)"/><path d="M168.71,45.74c-4.24,0-7.68,3.18-7.68,7.1a7.7,7.7,0,0,0,15.35,0C176.38,48.92,172.94,45.74,168.71,45.74Zm.09,11.89c-6.44,0-6.43-10,0-10S175.24,57.63,168.8,57.63Z" transform="translate(0 -17.38)"/><path class="cls-12" d="M128.26,45.54c-4.58,0-8.3,3.23-8.3,7.2s3.72,7.21,8.3,7.21,8.3-3.23,8.3-7.21S132.84,45.54,128.26,45.54Zm-.21,12.28c-6.44,0-6.43-10,0-10S134.49,57.82,128.05,57.82Z" transform="translate(0 -17.38)"/><rect x="136.56" y="32.84" width="23.35" height="1.99"/><circle class="cls-3" cx="128.07" cy="35.39" r="1.6"/><circle class="cls-3" cx="168.81" cy="35.42" r="1.43"/></svg>